<svg width="256" height="256" viewBox="0 0 256 256" fill="none" xmlns="http://www.w3.org/2000/svg">
<path d="M0 126.875C0 101.98 2.10467 79.9344 6.314 60.7381C10.6471 41.5419 16.4659 26.6948 23.7704 16.1968C31.1986 5.39894 39.3697 0 48.2836 0C56.3308 0 63.3257 3.89923 69.2683 11.6977C75.3347 19.1962 80.1631 28.6444 83.7534 40.0422V0.0492105H105.11V255.951H83.7534V215.058C80.1631 226.756 75.2728 236.504 69.0826 244.302C62.8924 252.101 55.8356 256 47.9121 256C39.1221 256 31.0748 250.601 23.7704 239.803C16.4659 228.705 10.6471 213.408 6.314 193.912C2.10467 174.116 0 151.77 0 126.875ZM83.7534 127.775C83.7534 110.678 82.2677 95.8313 79.2964 83.2337C76.4489 70.6362 72.6729 61.0381 67.9684 54.4394C63.2638 47.8406 58.1879 44.5413 52.7405 44.5413C47.2931 44.5413 42.2172 47.8406 37.5126 54.4394C32.808 60.7381 28.9701 70.1863 25.9988 82.7838C23.1513 95.0814 21.7276 109.779 21.7276 126.875C21.7276 143.972 23.1513 158.969 25.9988 171.866C28.9701 184.764 32.808 194.662 37.5126 201.561C42.341 208.159 47.4169 211.459 52.7405 211.459C58.1879 211.459 63.2638 208.159 67.9684 201.561C72.6729 194.962 76.4489 185.364 79.2964 172.766C82.2677 159.869 83.7534 144.872 83.7534 127.775Z" fill="#012022"/>
<path d="M154.087 40.0422C157.182 27.4446 161.267 17.6965 166.343 10.7979C171.543 3.5993 177.671 0 184.728 0V53.0896H179.343C171.048 53.0896 164.734 58.1886 160.401 68.3866C156.191 78.5846 154.087 96.2812 154.087 121.476V255.951H132.916V0.0492105H154.087V40.0422Z" fill="#012022"/>
<path d="M225.359 40.0422C228.454 27.4446 232.539 17.6965 237.615 10.7979C242.815 3.5993 248.943 0 256 0V53.0896H250.615C242.32 53.0896 236.006 58.1886 231.673 68.3866C227.463 78.5846 225.359 96.2812 225.359 121.476V255.951H204.188V0.0492105H225.359V40.0422Z" fill="#012022"/>
</svg>
