<svg width="64" height="64" viewBox="0 0 64 64" fill="none" xmlns="http://www.w3.org/2000/svg">
<g clip-path="url(#clip0_3_771)">
<path d="M32.0503 63.75C49.5567 63.75 63.7485 49.647 63.7485 32.25C63.7485 14.853 49.5567 0.75 32.0503 0.75C14.544 0.75 0.352219 14.853 0.352219 32.25C0.352219 49.647 14.544 63.75 32.0503 63.75Z" fill="white"/>
<path fill-rule="evenodd" clip-rule="evenodd" d="M33.6584 7.24617C33.1032 7.20914 32.545 7.18387 31.9802 7.18387C29.2938 7.18387 26.7089 7.61129 24.2843 8.39249C24.4849 8.93711 24.6 9.52181 24.6 10.1353C24.6 12.9364 22.3186 15.2068 19.5039 15.2068C17.908 15.2068 16.4851 14.4757 15.5508 13.3333C14.0999 14.5981 12.7992 16.0259 11.6749 17.5904H33.6584V7.24617ZM44.0394 10.2751V17.5904H52.2856C50.1241 14.5824 47.3076 12.0741 44.0394 10.2751ZM53.8017 19.9698H44.0394V40.254C44.0394 40.254 43.5354 45.2632 49.072 45.2632H53.0863C55.521 41.4286 56.9356 36.8891 56.9356 32.0185C56.9356 27.6454 55.796 23.5386 53.8017 19.9698ZM33.6584 40.254V25.0408C33.6584 19.9698 28.5631 19.9698 28.5631 19.9698H25.1661V40.254C25.1661 45.3255 30.2614 45.3255 30.2614 45.3255V48.6747H13.4712C18.0376 53.6969 24.6385 56.8531 31.9802 56.8531C39.3224 56.8531 45.9228 53.6969 50.4892 48.6747H49.072C49.072 48.6747 33.6584 49.5574 33.6584 40.254ZM14.9742 25.0408C14.9742 20.6769 11.2029 20.0687 10.1508 19.9842C8.16142 23.5494 7.02486 27.6511 7.02486 32.0185C7.02486 36.8852 8.43724 41.4208 10.8675 45.2532C14.9716 44.6419 14.9742 40.254 14.9742 40.254V25.0408Z" fill="#09CDDA"/>
<path fill-rule="evenodd" clip-rule="evenodd" d="M33.6584 7.24617C33.1032 7.20914 32.545 7.18387 31.9802 7.18387C29.2938 7.18387 26.7089 7.61129 24.2843 8.39249C24.4849 8.93711 24.6 9.52181 24.6 10.1353C24.6 12.9364 22.3186 15.2068 19.5039 15.2068C17.908 15.2068 16.4851 14.4757 15.5508 13.3333C14.0999 14.5981 12.7992 16.0259 11.6749 17.5904H33.6584V7.24617ZM44.0394 10.2751V17.5904H52.2856C50.1241 14.5824 47.3076 12.0741 44.0394 10.2751ZM53.8017 19.9698H44.0394V40.254C44.0394 40.254 43.5354 45.2632 49.072 45.2632H53.0863C55.521 41.4286 56.9356 36.8891 56.9356 32.0185C56.9356 27.6454 55.796 23.5386 53.8017 19.9698ZM33.6584 40.254V25.0408C33.6584 19.9698 28.5631 19.9698 28.5631 19.9698H25.1661V40.254C25.1661 45.3255 30.2614 45.3255 30.2614 45.3255V48.6747H13.4712C18.0376 53.6969 24.6385 56.8531 31.9802 56.8531C39.3224 56.8531 45.9228 53.6969 50.4892 48.6747H49.072C49.072 48.6747 33.6584 49.5574 33.6584 40.254ZM14.9742 25.0408C14.9742 20.6769 11.2029 20.0687 10.1508 19.9842C8.16142 23.5494 7.02486 27.6511 7.02486 32.0185C7.02486 36.8852 8.43724 41.4208 10.8675 45.2532C14.9716 44.6419 14.9742 40.254 14.9742 40.254V25.0408Z" stroke="#1F2B2D" stroke-width="0.744186"/>
<mask id="mask0_3_771" style="mask-type:alpha" maskUnits="userSpaceOnUse" x="-1" y="0" width="66" height="64">
<path d="M-0.287552 63.9698H64.071V0.0302277H-0.287552" fill="white"/>
</mask>
<g mask="url(#mask0_3_771)">
<path fill-rule="evenodd" clip-rule="evenodd" d="M2.71844 34.3556L3.18034 34.3007L3.27578 35.0984L5.47667 34.8388L5.54278 35.393L3.34189 35.6531L3.4369 36.4508L2.975 36.5053L2.71844 34.3556Z" fill="#1F2B2D"/>
<path fill-rule="evenodd" clip-rule="evenodd" d="M3.10635 31.6795L3.13875 33.0541L3.7066 33.0411L3.67682 31.7819L4.14178 31.7714L4.17155 33.0302L4.86198 33.014L4.82827 31.5715L5.3068 31.5601L5.35365 33.5478L2.67292 33.6096L2.62782 31.6904L3.10635 31.6795Z" fill="#1F2B2D"/>
<path fill-rule="evenodd" clip-rule="evenodd" d="M2.65234 30.7205L2.69612 30.1777L3.79898 30.2652L2.778 29.149L2.83535 28.4323L3.84757 29.6108L5.51302 28.5878L5.4561 29.301L4.22278 30.0286L4.47496 30.3188L5.36898 30.3894L5.32563 30.9323L2.65234 30.7205Z" fill="#1F2B2D"/>
<path fill-rule="evenodd" clip-rule="evenodd" d="M2.95227 27.6411L3.06041 27.0699L5.07961 26.3911L3.25392 26.0486L3.35024 25.5406L5.98544 26.0347L5.88212 26.5797L3.82527 27.2781L5.68379 27.6267L5.58747 28.1351L2.95227 27.6411Z" fill="#1F2B2D"/>
<path fill-rule="evenodd" clip-rule="evenodd" d="M6.51739 23.3342C6.65705 23.5874 6.67106 23.8958 6.55898 24.2596C6.4469 24.6235 6.2617 24.8714 6.00339 25.0029C5.67985 25.1864 5.28844 25.2082 4.82874 25.0679C4.36028 24.925 4.04812 24.6888 3.8927 24.3594C3.75259 24.1063 3.73902 23.7978 3.8511 23.434C3.96318 23.0702 4.14838 22.8223 4.40669 22.6907C4.7206 22.5055 5.11157 22.4842 5.58047 22.6271C6.04017 22.7674 6.35189 23.0031 6.51739 23.3342ZM6.02222 23.5482C5.90488 23.3774 5.70305 23.2484 5.41628 23.1608C5.13083 23.0741 4.89091 23.0685 4.69696 23.1438C4.50301 23.2196 4.37429 23.3621 4.30949 23.5717C4.24513 23.7817 4.2714 23.9725 4.38786 24.1451C4.50476 24.3172 4.70659 24.447 4.99336 24.5346C5.27969 24.6217 5.52005 24.6269 5.714 24.5489C5.90751 24.4718 6.0371 24.3281 6.10146 24.1185C6.16626 23.9089 6.13955 23.7185 6.02222 23.5482Z" fill="#1F2B2D"/>
<path fill-rule="evenodd" clip-rule="evenodd" d="M4.61856 21.449L4.83747 20.9348L6.86542 21.7892L7.38335 20.5736L7.82423 20.7592L7.08783 22.4894L4.61856 21.449Z" fill="#1F2B2D"/>
<path fill-rule="evenodd" clip-rule="evenodd" d="M8.83515 18.3564C8.92009 18.6322 8.87061 18.9372 8.68586 19.2705C8.50154 19.6038 8.26949 19.809 7.98973 19.8852C7.63554 19.9994 7.24764 19.941 6.8269 19.7105C6.39741 19.4753 6.14041 19.1807 6.05547 18.8265C5.97054 18.5503 6.02045 18.2457 6.20477 17.9124C6.38909 17.5787 6.62113 17.3739 6.90089 17.2972C7.24589 17.1796 7.63335 17.2388 8.06285 17.4737C8.48402 17.7042 8.74146 17.9983 8.83515 18.3564ZM8.30671 18.4649C8.22659 18.274 8.0554 18.1067 7.79272 17.963C7.5309 17.8196 7.29755 17.7656 7.09222 17.8C6.88688 17.8349 6.73146 17.9481 6.62507 18.1403C6.51868 18.3324 6.50555 18.5246 6.58435 18.7171C6.6636 18.9097 6.83434 19.0775 7.09703 19.2212C7.35972 19.365 7.59395 19.4191 7.79972 19.3825C8.00505 19.3459 8.16092 19.2313 8.26731 19.0391C8.37369 18.847 8.38683 18.6557 8.30671 18.4649Z" fill="#1F2B2D"/>
<path fill-rule="evenodd" clip-rule="evenodd" d="M9.11145 15.0935C8.9372 15.0225 8.77302 15.0325 8.61847 15.1244C8.53266 15.1758 8.45735 15.2473 8.39212 15.3383C8.26822 15.5135 8.23188 15.7035 8.28442 15.9091C8.33652 16.1147 8.49544 16.3108 8.7612 16.4982C9.02826 16.6868 9.26118 16.7591 9.45863 16.7156C9.65652 16.6724 9.81063 16.5731 9.92096 16.418C10.0291 16.2659 10.0742 16.1104 10.0558 15.9518C10.0379 15.7928 9.96562 15.6525 9.83997 15.53L9.47965 16.0368L9.1167 15.781L9.76116 14.8756L10.9332 15.7017L10.72 16.0015L10.4166 15.8507C10.4577 16.0111 10.4748 16.1413 10.4674 16.2407C10.4555 16.4128 10.3877 16.5866 10.2633 16.7613C10.058 17.0497 9.79006 17.2153 9.45863 17.2584C9.12108 17.3086 8.77783 17.2105 8.42846 16.9644C8.07558 16.7156 7.86105 16.4193 7.78575 16.076C7.71044 15.7322 7.78575 15.4015 8.01253 15.083C8.20868 14.8072 8.43678 14.6351 8.69684 14.5663C8.95646 14.4979 9.19988 14.5258 9.42755 14.6491L9.11145 15.0935Z" fill="#1F2B2D"/>
<path fill-rule="evenodd" clip-rule="evenodd" d="M11.0448 14.2914C11.1477 14.3589 11.2379 14.3942 11.3163 14.3964C11.459 14.4007 11.6035 14.3201 11.7506 14.155C11.8381 14.0561 11.899 13.9659 11.9318 13.8853C11.9944 13.7315 11.9695 13.6051 11.8565 13.5058C11.7904 13.4478 11.7138 13.4317 11.6267 13.4574C11.5404 13.484 11.4283 13.5481 11.2904 13.6491L11.0536 13.8204C10.8211 13.989 10.6407 14.0892 10.5137 14.1214C10.2996 14.1772 10.0948 14.1188 9.89817 13.9463C9.71911 13.7886 9.62848 13.5921 9.62673 13.3563C9.62498 13.1206 9.73706 12.8758 9.96297 12.6213C10.1517 12.4087 10.3688 12.2767 10.614 12.2253C10.8592 12.1739 11.0921 12.2379 11.3119 12.4183L10.9537 12.8209C10.8268 12.7224 10.6937 12.7002 10.5549 12.7547C10.4625 12.7913 10.3728 12.8584 10.2856 12.9564C10.1889 13.0662 10.1333 13.1721 10.1188 13.2753C10.1044 13.379 10.1363 13.4648 10.2138 13.5332C10.2856 13.596 10.3675 13.6112 10.4599 13.5777C10.5199 13.5572 10.6254 13.4936 10.7764 13.3873L11.1678 13.1119C11.339 12.9912 11.4892 12.9194 11.6179 12.8958C11.8175 12.8601 12.0067 12.9202 12.1849 13.0771C12.3679 13.2378 12.4572 13.4418 12.4537 13.6884C12.4498 13.9354 12.3342 14.1864 12.1065 14.4425C11.874 14.7044 11.6315 14.8578 11.3789 14.9026C11.1267 14.9475 10.896 14.8782 10.6871 14.6944L11.0448 14.2914Z" fill="#1F2B2D"/>
<path fill-rule="evenodd" clip-rule="evenodd" d="M13.0986 10.2734L12.0855 11.2084L12.4712 11.6227L13.3994 10.7666L13.7154 11.106L12.7877 11.9622L13.2571 12.4663L14.3209 11.4855L14.6462 11.8349L13.1813 13.186L11.3587 11.2293L12.7733 9.92397L13.0986 10.2734Z" fill="#1F2B2D"/>
<path fill-rule="evenodd" clip-rule="evenodd" d="M13.5211 9.29874L13.9585 8.97153L14.6231 9.85206L14.7881 8.35153L15.3656 7.9202L15.148 9.45515L17.021 10.0202L16.4461 10.4498L15.0814 10.0115L15.0302 10.3915L15.5687 11.1056L15.1309 11.4323L13.5211 9.29874Z" fill="#1F2B2D"/>
<path fill-rule="evenodd" clip-rule="evenodd" d="M17.7035 6.48849L17.9447 6.88411L17.2539 7.30063L18.4027 9.1872L17.9229 9.47649L16.7745 7.58993L16.084 8.00603L15.8428 7.61041L17.7035 6.48849Z" fill="#1F2B2D"/>
<path fill-rule="evenodd" clip-rule="evenodd" d="M20.0301 8.30535L19.5314 8.56023L18.3064 6.18613L18.8055 5.93169L20.0301 8.30535Z" fill="#1F2B2D"/>
<path fill-rule="evenodd" clip-rule="evenodd" d="M22.4564 6.97039C22.3496 7.23878 22.1197 7.44617 21.7668 7.59212C21.4135 7.73852 21.1035 7.75464 20.8369 7.64049C20.4889 7.50978 20.2222 7.22354 20.0375 6.78217C19.8492 6.33166 19.833 5.94172 19.9889 5.61233C20.0957 5.34394 20.3255 5.13656 20.6784 4.99016C21.0317 4.8442 21.3413 4.82807 21.6079 4.9418C21.9516 5.06466 22.2173 5.35091 22.4056 5.80142C22.5904 6.24278 22.607 6.63229 22.4564 6.97039ZM21.9752 6.72727C22.0321 6.5286 22.0033 6.29114 21.8881 6.01579C21.7734 5.7413 21.625 5.55395 21.4428 5.45373C21.2603 5.35353 21.0676 5.34525 20.8641 5.42977C20.6605 5.51386 20.5296 5.6559 20.4709 5.85544C20.4122 6.05456 20.4403 6.29245 20.5554 6.56781C20.6705 6.84317 20.8198 7.03052 21.0037 7.12942C21.1872 7.22876 21.3807 7.23616 21.5843 7.15164C21.7878 7.06712 21.9179 6.92595 21.9752 6.72727Z" fill="#1F2B2D"/>
<path fill-rule="evenodd" clip-rule="evenodd" d="M22.7152 4.30087L23.2756 4.13749L24.7992 5.62016L24.2777 3.84558L24.7764 3.70049L25.5294 6.2615L24.9949 6.41748L23.4358 4.90998L23.9669 6.7168L23.4682 6.86189L22.7152 4.30087Z" fill="#1F2B2D"/>
<path fill-rule="evenodd" clip-rule="evenodd" d="M27.722 3.60029L26.3634 3.85037L26.4663 4.40588L27.711 4.17714L27.7955 4.63245L26.5508 4.86119L26.676 5.53738L28.1024 5.27509L28.1891 5.7439L26.2251 6.10466L25.7382 3.48047L27.6353 3.13191L27.722 3.60029Z" fill="#1F2B2D"/>
<path fill-rule="evenodd" clip-rule="evenodd" d="M28.5862 3.00338L29.1685 2.95676L30.3585 4.7161L30.2092 2.87311L30.7276 2.83173L30.9425 5.49164L30.3874 5.53608L29.1681 3.74581L29.32 5.62191L28.8016 5.6633L28.5862 3.00338Z" fill="#1F2B2D"/>
<path fill-rule="evenodd" clip-rule="evenodd" d="M33.4223 5.52824L32.8619 5.50427L32.9766 2.83826L33.537 2.86222L33.4223 5.52824Z" fill="#1F2B2D"/>
<path fill-rule="evenodd" clip-rule="evenodd" d="M34.4354 2.90489L35.0155 2.97416L35.8312 4.93392L36.0523 3.09789L36.5684 3.15934L36.2493 5.80923L35.6963 5.743L34.8575 3.74752L34.6329 5.61622L34.1167 5.55479L34.4354 2.90489Z" fill="#1F2B2D"/>
<path fill-rule="evenodd" clip-rule="evenodd" d="M37.5119 3.33803L39.3682 3.74845L39.2675 4.20026L37.9585 3.91096L37.8236 4.51571L38.972 4.76972L38.8709 5.22153L37.7225 4.96753L37.4791 6.05763L36.9314 5.93607L37.5119 3.33803Z" fill="#1F2B2D"/>
<path fill-rule="evenodd" clip-rule="evenodd" d="M41.331 6.90154C41.0731 7.03398 40.7631 7.04008 40.4002 6.91984C40.0377 6.79915 39.7929 6.60875 39.6677 6.34863C39.4908 6.0223 39.479 5.63192 39.6314 5.1788C39.7864 4.71566 40.0315 4.4111 40.366 4.26471C40.6239 4.13182 40.9339 4.12615 41.2968 4.24641C41.6593 4.36666 41.9041 4.55706 42.0297 4.81717C42.2083 5.13435 42.2197 5.5243 42.0643 5.98701C41.9124 6.44057 41.6676 6.74512 41.331 6.90154ZM41.1287 6.40353C41.3025 6.29112 41.4373 6.09332 41.5324 5.81012C41.6265 5.52823 41.6387 5.2899 41.5674 5.09514C41.496 4.90038 41.3559 4.76837 41.1471 4.69866C40.9378 4.62938 40.7456 4.65074 40.5692 4.76271C40.3936 4.87468 40.2579 5.07249 40.1633 5.35526C40.0683 5.63845 40.0574 5.87721 40.13 6.07197C40.2031 6.26673 40.3446 6.39874 40.5534 6.46802C40.7627 6.53773 40.954 6.51594 41.1287 6.40353Z" fill="#1F2B2D"/>
<path fill-rule="evenodd" clip-rule="evenodd" d="M44.8203 5.83844C44.8921 5.91773 44.942 6.00922 44.9696 6.11248C44.9928 6.19701 45.002 6.28371 44.9977 6.37216C44.9933 6.46017 44.9688 6.55166 44.925 6.64709C44.8716 6.7621 44.7897 6.86145 44.6802 6.94554C44.5703 7.02963 44.4377 7.06404 44.2823 7.04836C44.3733 7.14509 44.4228 7.24529 44.4311 7.34942C44.439 7.45399 44.4035 7.59123 44.3247 7.76115L44.249 7.9241C44.1973 8.03521 44.1671 8.11233 44.1575 8.1559C44.1413 8.22474 44.1509 8.28487 44.1855 8.33671L44.1575 8.39771L43.5993 8.14108C43.6093 8.08052 43.6185 8.03215 43.6273 7.996C43.6461 7.92193 43.6711 7.84916 43.7035 7.77728L43.8046 7.55028C43.8742 7.3943 43.8957 7.27884 43.8677 7.20347C43.8401 7.12809 43.7551 7.05795 43.6129 6.99259L43.1151 6.76342L42.6733 7.71541L42.1764 7.48667L43.3011 5.06421L44.4653 5.59968C44.6303 5.67941 44.7485 5.75914 44.8203 5.83844ZM43.6028 5.71296L43.3011 6.36171L43.8497 6.61354C43.9587 6.66408 44.0463 6.68848 44.1128 6.68716C44.2306 6.68586 44.3208 6.61702 44.3834 6.48152C44.4517 6.33513 44.4504 6.21531 44.3808 6.12207C44.3414 6.06979 44.2696 6.01968 44.1649 5.97132L43.6028 5.71296Z" fill="#1F2B2D"/>
<path fill-rule="evenodd" clip-rule="evenodd" d="M47.6394 7.32939L48.3255 7.74461L46.9337 10.0255L46.4898 9.75665L47.431 8.21386C47.4582 8.16985 47.4967 8.10798 47.5462 8.02869C47.5961 7.94895 47.6342 7.88796 47.6609 7.84438L46.0594 9.49697L45.5953 9.21639L46.333 7.04226C46.3067 7.08541 46.2695 7.14727 46.2214 7.22831C46.1741 7.30892 46.1364 7.37122 46.1097 7.41567L45.168 8.95802L44.724 8.68963L46.1154 6.40877L46.8098 6.82835L46.1316 8.87306L47.6394 7.32939Z" fill="#1F2B2D"/>
<path fill-rule="evenodd" clip-rule="evenodd" d="M49.7173 8.76456L50.2221 9.1532L49.3285 11.8393L48.8491 11.4702L49.0461 10.9334L48.2651 10.3322L47.7883 10.6533L47.3212 10.2938L49.7173 8.76456ZM48.6709 10.0594L49.213 10.4764L49.5921 9.43988L48.6709 10.0594Z" fill="#1F2B2D"/>
<path fill-rule="evenodd" clip-rule="evenodd" d="M52.7794 11.3971L52.4624 11.7365L51.8714 11.1897L50.3631 12.8052L49.9515 12.4253L51.4602 10.8098L50.8692 10.2625L51.1857 9.92355L52.7794 11.3971Z" fill="#1F2B2D"/>
<path fill-rule="evenodd" clip-rule="evenodd" d="M51.6577 14.118L51.2746 13.7101L53.2334 11.8876L53.6165 12.2954L51.6577 14.118Z" fill="#1F2B2D"/>
<path fill-rule="evenodd" clip-rule="evenodd" d="M53.6349 16.1074C53.3459 16.0782 53.0828 15.9143 52.8455 15.6159C52.6082 15.3174 52.5088 15.0251 52.5465 14.7388C52.5784 14.3694 52.7829 14.0365 53.1598 13.7398C53.5442 13.437 53.9168 13.3159 54.2776 13.3756C54.5661 13.4047 54.8297 13.5686 55.067 13.867C55.3043 14.1655 55.4036 14.4578 55.366 14.7441C55.341 15.1066 55.1361 15.439 54.7517 15.7418C54.3748 16.0385 54.0026 16.1605 53.6349 16.1074ZM53.7391 15.5806C53.947 15.5815 54.1686 15.4891 54.4037 15.3039C54.6375 15.1196 54.7784 14.9266 54.8262 14.7249C54.8734 14.5227 54.8292 14.3363 54.6922 14.1642C54.5556 13.9921 54.3827 13.9049 54.1738 13.9028C53.965 13.901 53.743 13.9925 53.5079 14.1777C53.2728 14.3628 53.1323 14.5567 53.0863 14.7593C53.0403 14.9624 53.0854 15.1497 53.2224 15.3214C53.359 15.4935 53.5316 15.5797 53.7391 15.5806Z" fill="#1F2B2D"/>
<path fill-rule="evenodd" clip-rule="evenodd" d="M56.288 15.6329L56.5971 16.1257L55.5752 17.9865L57.1505 17.0066L57.4258 17.4458L55.1518 18.8596L54.8568 18.3895L55.8931 16.4886L54.2889 17.4859L54.0135 17.0471L56.288 15.6329Z" fill="#1F2B2D"/>
<path fill-rule="evenodd" clip-rule="evenodd" d="M56.4067 19.47C56.3046 19.5384 56.2372 19.6086 56.2053 19.6796C56.147 19.809 56.1663 19.9728 56.2644 20.1711C56.3226 20.2896 56.383 20.3798 56.4456 20.4408C56.5638 20.5567 56.6917 20.5819 56.8265 20.5161C56.9058 20.4774 56.9495 20.4133 56.9592 20.3231C56.967 20.2334 56.9509 20.1062 56.9097 19.9406L56.8405 19.6574C56.7731 19.3794 56.7486 19.1755 56.767 19.0461C56.7967 18.8283 56.9294 18.6618 57.165 18.5468C57.3795 18.4422 57.5966 18.4339 57.816 18.522C58.0358 18.61 58.2205 18.8065 58.3707 19.1119C58.4963 19.3663 58.5357 19.6164 58.4902 19.8617C58.4442 20.107 58.2963 20.2966 58.0445 20.4299L57.8068 19.9467C57.9473 19.8678 58.0187 19.7537 58.0213 19.6051C58.0222 19.5066 57.9937 19.3981 57.9359 19.2805C57.8716 19.1498 57.7941 19.0579 57.7035 19.0056C57.6128 18.9529 57.5209 18.9489 57.4276 18.9947C57.3423 19.0365 57.2967 19.1062 57.2928 19.2038C57.2888 19.267 57.3077 19.3886 57.3493 19.5676L57.4557 20.0325C57.5021 20.2364 57.5121 20.402 57.4841 20.5292C57.4412 20.7266 57.3134 20.8778 57.0997 20.9819C56.8804 21.0886 56.6566 21.0934 56.4294 20.9958C56.2013 20.8982 56.0122 20.6956 55.8611 20.3889C55.707 20.0752 55.6567 19.7938 55.7114 19.5445C55.7657 19.2949 55.9185 19.1093 56.1685 18.9868L56.4067 19.47Z" fill="#1F2B2D"/>
<path fill-rule="evenodd" clip-rule="evenodd" d="M59.8085 22.7212L59.3733 22.8846L59.0878 22.133L57.0144 22.9116L56.8165 22.3892L58.8899 21.6106L58.6054 20.859L59.0406 20.6956L59.8085 22.7212Z" fill="#1F2B2D"/>
<path fill-rule="evenodd" clip-rule="evenodd" d="M60.0782 25.4112L59.7148 24.0849L59.1671 24.233L59.4998 25.4482L59.0506 25.5702L58.7179 24.355L58.0515 24.5358L58.4329 25.9283L57.9705 26.0538L57.4456 24.1359L60.0326 23.434L60.5401 25.2861L60.0782 25.4112Z" fill="#1F2B2D"/>
<path fill-rule="evenodd" clip-rule="evenodd" d="M60.7506 26.232L60.8399 26.7697L59.7485 26.9492L61.0098 27.7883L61.1276 28.4972L59.8597 27.5962L58.4911 28.9882L58.3737 28.2828L59.3943 27.2807L59.0795 27.0594L58.1947 27.2054L58.1054 26.6681L60.7506 26.232Z" fill="#1F2B2D"/>
<path fill-rule="evenodd" clip-rule="evenodd" d="M61.206 29.2915L61.2397 29.8714L59.4455 31.016L61.3006 30.9088L61.3308 31.4251L58.6539 31.5802L58.6216 31.0269L60.4477 29.8535L58.5589 29.9629L58.5292 29.4462L61.206 29.2915Z" fill="#1F2B2D"/>
<path fill-rule="evenodd" clip-rule="evenodd" d="M58.6259 32.7962L58.636 32.2381L61.3172 32.286L61.3067 32.8446L58.6259 32.7962Z" fill="#1F2B2D"/>
<path fill-rule="evenodd" clip-rule="evenodd" d="M61.2852 33.753L61.2335 34.2954L60.132 34.1913L61.1359 35.3232L61.0676 36.0391L60.0733 34.8453L58.3926 35.843L58.4604 35.1311L59.7043 34.4222L59.4569 34.1281L58.5638 34.044L58.6154 33.5016L61.2852 33.753Z" fill="#1F2B2D"/>
<path fill-rule="evenodd" clip-rule="evenodd" d="M5.21837 39.2685C5.16496 39.36 5.08265 39.4201 4.97013 39.4497C4.85805 39.4785 4.75604 39.4667 4.66322 39.4131C4.5704 39.36 4.50955 39.2772 4.48021 39.1656C4.45044 39.0545 4.46314 38.9526 4.51743 38.8606C4.57216 38.7687 4.65534 38.7086 4.76742 38.679C4.8795 38.6498 4.98107 38.662 5.07258 38.7156C5.16408 38.7696 5.22494 38.8524 5.25427 38.9635C5.2836 39.075 5.27134 39.177 5.21837 39.2685Z" fill="#1F2B2D"/>
<path fill-rule="evenodd" clip-rule="evenodd" d="M6.66358 41.2556C6.94772 41.3733 7.15174 41.5859 7.27564 41.8931C7.4407 42.3039 7.4245 42.6599 7.22661 42.9592C7.11409 43.1257 6.98187 43.2442 6.82995 43.3134L6.62155 42.795C6.7275 42.7152 6.80062 42.6372 6.84089 42.5619C6.91182 42.4272 6.91138 42.2699 6.83914 42.09C6.76515 41.907 6.63118 41.7929 6.43635 41.7475C6.24153 41.7027 6.00511 41.7358 5.72666 41.8469C5.44821 41.9576 5.2617 42.0961 5.16757 42.2625C5.07388 42.429 5.06118 42.5976 5.12992 42.7688C5.20085 42.9444 5.31424 43.0542 5.47141 43.0991C5.55635 43.1239 5.66974 43.1278 5.81247 43.11L6.02087 43.628C5.73235 43.6921 5.46704 43.6664 5.22449 43.5526C4.98194 43.438 4.80331 43.2389 4.68904 42.9553C4.54763 42.6037 4.55113 42.2821 4.69911 41.9898C4.84841 41.697 5.12335 41.4709 5.52395 41.311C5.95739 41.1389 6.33697 41.1201 6.66358 41.2556Z" fill="#1F2B2D"/>
<path fill-rule="evenodd" clip-rule="evenodd" d="M5.53494 44.7412L7.90702 43.4964L8.16883 43.9905L7.26693 44.4637L7.74546 45.3669L8.64736 44.8937L8.90874 45.3873L6.53666 46.6317L6.27529 46.1381L7.33436 45.5825L6.85539 44.6793L5.79675 45.2349L5.53494 44.7412Z" fill="#1F2B2D"/>
<path fill-rule="evenodd" clip-rule="evenodd" d="M9.67357 46.5824L10.0286 47.1101L8.32642 49.3761L7.98886 48.8751L8.34656 48.4272L7.7971 47.6116L7.24239 47.7658L6.91403 47.2778L9.67357 46.5824ZM8.26906 47.4804L8.6504 48.0468L9.33995 47.1833L8.26906 47.4804Z" fill="#1F2B2D"/>
<path fill-rule="evenodd" clip-rule="evenodd" d="M10.8504 48.2534L11.2064 48.6843L9.50504 50.0763L10.3483 51.0967L9.97831 51.3991L8.77914 49.9478L10.8504 48.2534Z" fill="#1F2B2D"/>
<path fill-rule="evenodd" clip-rule="evenodd" d="M13.6537 51.329L14.2264 51.8897L12.346 53.7924L11.9752 53.4294L13.2475 52.1428C13.2838 52.1058 13.3355 52.054 13.4024 51.9886C13.469 51.9228 13.5202 51.8714 13.5561 51.8352L11.6166 53.0783L11.2291 52.6992L12.4489 50.7512C12.413 50.7874 12.3626 50.8392 12.2974 50.9072C12.2326 50.9747 12.1818 51.0266 12.145 51.0636L10.8732 52.3502L10.5028 51.9877L12.3828 50.0855L12.962 50.6523L11.8307 52.4879L13.6537 51.329Z" fill="#1F2B2D"/>
<path fill-rule="evenodd" clip-rule="evenodd" d="M15.9461 53.8677L14.8621 53.0151L14.5096 53.4586L15.503 54.2394L15.2145 54.6027L14.2216 53.822L13.7934 54.3614L14.9313 55.2558L14.6344 55.6297L13.067 54.3975L14.7294 52.304L16.243 53.4939L15.9461 53.8677Z" fill="#1F2B2D"/>
<path fill-rule="evenodd" clip-rule="evenodd" d="M18.1904 54.8568C18.2504 54.9452 18.2876 55.0424 18.3007 55.1483C18.3121 55.2354 18.3099 55.3225 18.2933 55.4092C18.2766 55.4959 18.2403 55.5835 18.1834 55.6719C18.1151 55.7787 18.0205 55.8658 17.9006 55.9351C17.7802 56.0035 17.644 56.0196 17.4921 55.983C17.5691 56.0907 17.6046 56.197 17.5985 56.3011C17.5923 56.4057 17.5385 56.5368 17.4369 56.695L17.3402 56.8461C17.2736 56.949 17.2333 57.0217 17.2176 57.0631C17.1926 57.1293 17.1935 57.1903 17.2211 57.2461L17.1847 57.3027L16.6668 56.9734C16.6847 56.9145 16.7005 56.8679 16.7145 56.8335C16.7425 56.7625 16.7776 56.6937 16.8192 56.6266L16.9509 56.4157C17.0411 56.2706 17.0775 56.1591 17.0604 56.0811C17.0429 56.0022 16.9689 55.9207 16.8367 55.8371L16.3748 55.543L15.8069 56.4261L15.3459 56.1333L16.7903 53.8847L17.8708 54.5723C18.0236 54.6733 18.1295 54.7683 18.1904 54.8568ZM17.0009 54.5679L16.6138 55.1705L17.123 55.4942C17.2237 55.5582 17.3073 55.5944 17.3734 55.6022C17.4903 55.6162 17.5893 55.5609 17.6698 55.4349C17.7569 55.2994 17.7723 55.1805 17.7162 55.079C17.6843 55.0215 17.6199 54.9618 17.5227 54.9003L17.0009 54.5679Z" fill="#1F2B2D"/>
<path fill-rule="evenodd" clip-rule="evenodd" d="M18.696 57.1812C18.6562 57.2971 18.6448 57.3925 18.6619 57.4687C18.6938 57.6077 18.8085 57.7262 19.006 57.826C19.1246 57.8857 19.2271 57.9214 19.3142 57.9332C19.4793 57.9545 19.5957 57.8983 19.664 57.765C19.7039 57.6866 19.7004 57.609 19.6531 57.5315C19.6054 57.4548 19.5152 57.3633 19.3825 57.2557L19.1562 57.071C18.9338 56.8893 18.791 56.7411 18.7275 56.6265C18.6194 56.4348 18.6247 56.2227 18.7429 55.99C18.851 55.7774 19.0196 55.641 19.2486 55.5796C19.4771 55.519 19.7433 55.5648 20.048 55.719C20.3019 55.8466 20.4849 56.0227 20.597 56.2462C20.7087 56.4692 20.7047 56.7098 20.5848 56.9664L20.1027 56.7233C20.1666 56.576 20.1548 56.4422 20.0673 56.322C20.0082 56.2427 19.9202 56.1734 19.8028 56.1142C19.6724 56.0479 19.555 56.0214 19.4508 56.0331C19.3466 56.0458 19.2709 56.098 19.224 56.19C19.1807 56.2749 19.1868 56.3573 19.2424 56.4379C19.2779 56.4906 19.3663 56.576 19.5077 56.6949L19.8737 57.0025C20.0344 57.1367 20.1421 57.2635 20.1973 57.3816C20.2827 57.565 20.2713 57.762 20.1636 57.9733C20.0533 58.1898 19.8777 58.3275 19.6369 58.3863C19.3961 58.4443 19.1225 58.3963 18.816 58.2412C18.503 58.0835 18.2928 57.8888 18.1855 57.657C18.0787 57.4252 18.0879 57.1855 18.214 56.9376L18.696 57.1812Z" fill="#1F2B2D"/>
<path fill-rule="evenodd" clip-rule="evenodd" d="M24.4892 57.579L24.3386 58.0169L23.575 57.7563L22.8561 59.8424L22.3255 59.6616L23.0444 57.5751L22.2809 57.315L22.4319 56.8771L24.4892 57.579Z" fill="#1F2B2D"/>
<path fill-rule="evenodd" clip-rule="evenodd" d="M26.7045 58.6142L25.3609 58.2927L25.2282 58.8421L26.4589 59.1362L26.3499 59.5867L25.1196 59.2922L24.9581 59.9605L26.3678 60.2978L26.2558 60.7613L24.3136 60.296L24.941 57.7019L26.8166 58.1511L26.7045 58.6142Z" fill="#1F2B2D"/>
<path fill-rule="evenodd" clip-rule="evenodd" d="M27.4746 58.2765L28.0166 58.3497L27.8682 59.4407L29.0451 58.4878L29.7605 58.5846L28.5223 59.5252L29.4571 61.2362L28.7447 61.1404L28.0823 59.8751L27.7776 60.1095L27.6572 60.994L27.1147 60.9208L27.4746 58.2765Z" fill="#1F2B2D"/>
<path fill-rule="evenodd" clip-rule="evenodd" d="M30.2464 58.6133L30.83 58.6303L31.819 60.509L31.8738 58.6608L32.3939 58.6765L32.3147 61.3438L31.7573 61.3277L30.7429 59.4145L30.6869 61.2959L30.1676 61.2806L30.2464 58.6133Z" fill="#1F2B2D"/>
<path fill-rule="evenodd" clip-rule="evenodd" d="M33.7152 61.2819L33.1548 61.3072L33.0331 58.6416L33.5935 58.6159L33.7152 61.2819Z" fill="#1F2B2D"/>
<path fill-rule="evenodd" clip-rule="evenodd" d="M34.8921 60.3705C34.9232 60.4894 34.967 60.5753 35.0234 60.6289C35.1272 60.7273 35.2888 60.7635 35.509 60.7373C35.6412 60.7221 35.7463 60.6955 35.8251 60.6576C35.9744 60.5848 36.0409 60.4737 36.023 60.3247C36.0129 60.2376 35.9669 60.1748 35.8846 60.1361C35.8023 60.0982 35.6762 60.0716 35.5059 60.0555L35.2143 60.0258C34.928 59.9967 34.727 59.9513 34.6106 59.8912C34.414 59.7906 34.3002 59.6111 34.27 59.3518C34.2419 59.1152 34.3067 58.9091 34.463 58.7327C34.6198 58.5554 34.8676 58.4473 35.2064 58.4081C35.4897 58.375 35.7397 58.4212 35.9569 58.5458C36.174 58.6704 36.304 58.873 36.347 59.1527L35.8102 59.2154C35.7817 59.0573 35.6977 58.9523 35.558 58.9004C35.4648 58.8664 35.3527 58.8573 35.2218 58.8726C35.0764 58.8895 34.9639 58.9318 34.8838 58.9989C34.8037 59.0664 34.7695 59.1514 34.7818 59.2542C34.7927 59.3488 34.8439 59.4141 34.935 59.4507C34.9937 59.4756 35.1145 59.4978 35.2984 59.5187L35.7743 59.5736C35.9831 59.5975 36.1434 59.6437 36.2546 59.7117C36.4275 59.818 36.5278 59.9879 36.5553 60.2232C36.5838 60.4646 36.5138 60.6759 36.3456 60.8571C36.1771 61.038 35.9223 61.1486 35.5812 61.1883C35.2327 61.2288 34.949 61.1822 34.731 61.0475C34.5129 60.9134 34.3877 60.7086 34.3553 60.4332L34.8921 60.3705Z" fill="#1F2B2D"/>
<path fill-rule="evenodd" clip-rule="evenodd" d="M36.8684 58.253L37.4029 58.1354L37.6407 59.2111L38.416 57.914L39.1218 57.7594L38.2843 59.0665L39.7531 60.3535L39.0513 60.5073L37.9922 59.5457L37.7865 59.8703L37.9791 60.7421L37.445 60.8589L36.8684 58.253Z" fill="#1F2B2D"/>
<path fill-rule="evenodd" clip-rule="evenodd" d="M40.3148 57.3808L40.9207 57.1808L42.6624 59.4172L42.0871 59.6071L41.7491 59.1453L40.8122 59.4546L40.8139 60.028L40.2535 60.2132L40.3148 57.3808ZM40.8109 58.9675L41.4606 58.7523L40.8078 57.8609L40.8109 58.9675Z" fill="#1F2B2D"/>
<path fill-rule="evenodd" clip-rule="evenodd" d="M44.443 58.6656L43.2399 56.2806L43.7412 56.0301L44.1982 56.9368L45.1155 56.4789L44.6584 55.5722L45.1597 55.3217L46.3628 57.7066L45.8611 57.9572L45.3243 56.8923L44.4071 57.3507L44.9443 58.4151L44.443 58.6656Z" fill="#1F2B2D"/>
<path fill-rule="evenodd" clip-rule="evenodd" d="M45.808 54.0516L46.21 53.7932L46.4442 54.1535L46.0418 54.4123L45.808 54.0516ZM48.7891 55.9225C48.7326 56.2061 48.5431 56.4505 48.2222 56.6575C47.9008 56.8636 47.5991 56.935 47.3163 56.8701C46.9503 56.803 46.6364 56.569 46.3754 56.1673C46.1097 55.7573 46.0234 55.3765 46.118 55.0249C46.1745 54.7417 46.3636 54.4969 46.6846 54.2904C47.0063 54.0838 47.308 54.0133 47.5904 54.0777C47.9507 54.1374 48.2642 54.3718 48.5299 54.7814C48.7909 55.1831 48.8771 55.5634 48.7891 55.9225ZM46.4227 53.6564L46.8246 53.3976L47.0589 53.7584L46.657 54.0167L46.4227 53.6564ZM48.2721 55.7691C48.2926 55.563 48.2217 55.3352 48.0588 55.0842C47.8969 54.835 47.7174 54.6768 47.5199 54.6106C47.3224 54.5439 47.1316 54.5705 46.9464 54.6894C46.7612 54.8088 46.6578 54.9718 46.6355 55.1783C46.6136 55.3853 46.6841 55.6136 46.8465 55.8645C47.0094 56.115 47.1898 56.2723 47.3886 56.3373C47.5869 56.4022 47.7787 56.3752 47.9638 56.2562C48.149 56.1373 48.2515 55.9743 48.2721 55.7691Z" fill="#1F2B2D"/>
<path fill-rule="evenodd" clip-rule="evenodd" d="M50.167 52.8526C50.0177 52.7384 49.8566 52.7053 49.6836 52.7528C49.5869 52.7798 49.4949 52.8291 49.4082 52.8996C49.2419 53.0351 49.1565 53.2094 49.1521 53.4216C49.1477 53.6334 49.2489 53.8647 49.4551 54.1152C49.663 54.3675 49.8679 54.4986 50.0702 54.5087C50.272 54.5191 50.4472 54.4642 50.5951 54.3431C50.7401 54.2255 50.8246 54.0869 50.8495 53.9292C50.8736 53.7715 50.8421 53.6168 50.7536 53.466L50.2707 53.8595L49.9888 53.5175L50.8513 52.8138L51.7619 53.9196L51.476 54.1527L51.2239 53.927C51.2208 54.0926 51.2024 54.2224 51.1691 54.3165C51.1118 54.4795 51.0006 54.6289 50.8338 54.7649C50.5592 54.9892 50.2563 55.0781 49.9257 55.0319C49.5869 54.9914 49.2817 54.8067 49.0107 54.4773C48.7362 54.144 48.6083 53.802 48.6272 53.4508C48.646 53.1001 48.8071 52.8003 49.1096 52.5533C49.3728 52.3389 49.6385 52.2326 49.9069 52.2352C50.1762 52.2378 50.4034 52.3285 50.5899 52.5075L50.167 52.8526Z" fill="#1F2B2D"/>
<path fill-rule="evenodd" clip-rule="evenodd" d="M52.145 52.412C52.243 52.4852 52.3319 52.5249 52.4094 52.5314C52.5517 52.5436 52.7005 52.4709 52.8564 52.314C52.9501 52.2199 53.0149 52.1336 53.0525 52.0548C53.1235 51.9049 53.1051 51.7772 52.9983 51.6718C52.9352 51.6104 52.8599 51.5903 52.771 51.6112C52.6835 51.633 52.5683 51.6905 52.4247 51.7838L52.1795 51.9424C51.9374 52.0975 51.7522 52.1881 51.6235 52.2134C51.4068 52.2574 51.2054 52.1877 51.0189 52.0047C50.8486 51.8374 50.7689 51.6361 50.7803 51.4008C50.7912 51.1655 50.9164 50.9272 51.1564 50.6854C51.3565 50.4832 51.5806 50.363 51.828 50.3255C52.0762 50.2872 52.3048 50.3643 52.514 50.556L52.1344 50.939C52.0132 50.8335 51.8814 50.8039 51.74 50.8509C51.6459 50.8823 51.5526 50.9446 51.4598 51.0379C51.3573 51.1416 51.2956 51.2448 51.2755 51.3468C51.2558 51.4496 51.2825 51.5372 51.3565 51.6095C51.4247 51.6762 51.5057 51.6958 51.5999 51.6674C51.6607 51.6505 51.7697 51.5925 51.926 51.4945L52.3323 51.2409C52.5101 51.1298 52.6638 51.0662 52.7934 51.0501C52.9948 51.0248 53.1804 51.0954 53.3498 51.2618C53.5236 51.4326 53.6016 51.6404 53.5845 51.887C53.567 52.1328 53.4374 52.3776 53.1961 52.6207C52.9501 52.8695 52.6992 53.0094 52.4444 53.0403C52.1901 53.0713 51.9637 52.9898 51.7654 52.795L52.145 52.412Z" fill="#1F2B2D"/>
<path fill-rule="evenodd" clip-rule="evenodd" d="M52.3551 49.5291L52.6984 49.1043L53.5604 49.7944L53.3485 48.2995L53.8012 47.7397L53.9715 49.2807L55.9264 49.3679L55.4758 49.926L54.0451 49.8362L54.0889 50.2175L54.7881 50.7769L54.4452 51.2008L52.3551 49.5291Z" fill="#1F2B2D"/>
<path fill-rule="evenodd" clip-rule="evenodd" d="M57.2481 46.9219C57.3142 47.2033 57.2442 47.5039 57.038 47.8242C56.8318 48.1448 56.5861 48.3335 56.302 48.391C55.9408 48.4812 55.5577 48.3971 55.1532 48.1392C54.7408 47.876 54.5035 47.5649 54.4435 47.2055C54.3769 46.9245 54.4474 46.6238 54.6536 46.3032C54.8598 45.9829 55.1055 45.7938 55.3896 45.7363C55.7425 45.6422 56.1251 45.7267 56.5375 45.9899C56.9421 46.2478 57.1789 46.5585 57.2481 46.9219ZM56.7136 46.9951C56.647 46.7994 56.4872 46.6212 56.235 46.46C55.9833 46.2992 55.7543 46.2295 55.5468 46.2504C55.3397 46.2718 55.1768 46.3742 55.0577 46.5589C54.9391 46.7437 54.9124 46.9345 54.978 47.1314C55.0442 47.3292 55.2035 47.5083 55.4557 47.6691C55.7079 47.8303 55.9382 47.8991 56.1457 47.8769C56.3537 47.8542 56.5165 47.7501 56.636 47.5658C56.7547 47.3811 56.781 47.1907 56.7136 46.9951Z" fill="#1F2B2D"/>
<path fill-rule="evenodd" clip-rule="evenodd" d="M55.6816 44.7652L55.9351 44.2672L57.8992 45.2597L58.4998 44.082L58.9271 44.2977L58.0725 45.9729L55.6816 44.7652Z" fill="#1F2B2D"/>
<path fill-rule="evenodd" clip-rule="evenodd" d="M57.0253 41.917L57.2578 41.3249L60.0992 41.4212L59.8785 41.9828L59.305 41.9467L58.946 42.8616L59.3904 43.2267L59.175 43.774L57.0253 41.917ZM58.5686 42.551L58.8177 41.9162L57.7114 41.8464L58.5686 42.551Z" fill="#1F2B2D"/>
<path fill-rule="evenodd" clip-rule="evenodd" d="M59.2222 38.584C59.3133 38.53 59.4149 38.5173 59.5274 38.5461C59.6395 38.5748 59.7231 38.6354 59.7778 38.7265C59.833 38.8179 59.8461 38.9199 59.8168 39.0315C59.7883 39.1434 59.7275 39.2258 59.6351 39.2798C59.5423 39.3338 59.4403 39.346 59.3277 39.3177C59.2157 39.2889 59.1329 39.2288 59.0795 39.1378C59.0257 39.0463 59.013 38.9447 59.0419 38.8332C59.0707 38.7217 59.1312 38.6384 59.2222 38.584Z" fill="#1F2B2D"/>
<path fill-rule="evenodd" clip-rule="evenodd" d="M63.156 32.0185C63.156 49.1527 49.1976 63.0435 31.9797 63.0435C14.7623 63.0435 0.803925 49.1527 0.803925 32.0185C0.803925 14.8839 14.7623 0.993103 31.9797 0.993103C49.1976 0.993103 63.156 14.8839 63.156 32.0185Z" stroke="#1F2B2D" stroke-width="1.48837"/>
</g>
</g>
<defs>
<clipPath id="clip0_3_771">
<rect width="64" height="64" fill="white"/>
</clipPath>
</defs>
</svg>
