<svg width="420" height="420" viewBox="0 0 420 420" fill="none" xmlns="http://www.w3.org/2000/svg">
<g clip-path="url(#clip0_81_519)">
<path d="M210.33 418.359C325.216 418.359 418.349 325.808 418.349 211.641C418.349 97.473 325.216 4.92188 210.33 4.92188C95.4448 4.92188 2.31152 97.473 2.31152 211.641C2.31152 325.808 95.4448 418.359 210.33 418.359Z" fill="white" fill-opacity="0.5"/>
<path fill-rule="evenodd" clip-rule="evenodd" d="M220.883 47.5528C217.24 47.3098 213.576 47.1439 209.87 47.1439C192.24 47.1439 175.277 49.9488 159.366 55.0755C160.682 58.6495 161.437 62.4867 161.437 66.5125C161.437 84.8946 146.465 99.7941 127.994 99.7941C117.521 99.7941 108.184 94.9963 102.052 87.4994C92.5306 95.7998 83.9945 105.17 76.6163 115.437H220.883V47.5528ZM289.008 67.4303V115.437H343.124C328.939 95.6968 310.456 79.2361 289.008 67.4303ZM353.074 131.051H289.008V264.167C289.008 264.167 285.701 297.039 322.035 297.039H348.379C364.357 271.875 373.64 242.085 373.64 210.121C373.64 181.423 366.161 154.472 353.074 131.051ZM220.883 264.167V164.33C220.883 131.051 187.445 131.051 187.445 131.051H165.152V264.167C165.152 297.448 198.59 297.448 198.59 297.448V319.427H88.4048C118.372 352.386 161.69 373.098 209.87 373.098C258.053 373.098 301.368 352.386 331.335 319.427H322.035C322.035 319.427 220.883 325.22 220.883 264.167ZM98.2683 164.33C98.2683 135.692 73.519 131.7 66.6148 131.146C53.5592 154.543 46.1005 181.46 46.1005 210.121C46.1005 242.059 55.3693 271.824 71.3182 296.974C98.2511 292.962 98.2683 264.167 98.2683 264.167V164.33Z" fill="#999999" fill-opacity="0.5"/>
<path fill-rule="evenodd" clip-rule="evenodd" d="M220.883 47.5528C217.24 47.3098 213.576 47.1439 209.87 47.1439C192.24 47.1439 175.277 49.9488 159.366 55.0755C160.682 58.6495 161.437 62.4867 161.437 66.5125C161.437 84.8946 146.465 99.7941 127.994 99.7941C117.521 99.7941 108.184 94.9963 102.052 87.4994C92.5306 95.7998 83.9945 105.17 76.6163 115.437H220.883V47.5528ZM289.008 67.4303V115.437H343.124C328.939 95.6968 310.456 79.2361 289.008 67.4303ZM353.074 131.051H289.008V264.167C289.008 264.167 285.701 297.039 322.035 297.039H348.379C364.357 271.875 373.64 242.085 373.64 210.121C373.64 181.423 366.161 154.472 353.074 131.051ZM220.883 264.167V164.33C220.883 131.051 187.445 131.051 187.445 131.051H165.152V264.167C165.152 297.448 198.59 297.448 198.59 297.448V319.427H88.4048C118.372 352.386 161.69 373.098 209.87 373.098C258.053 373.098 301.368 352.386 331.335 319.427H322.035C322.035 319.427 220.883 325.22 220.883 264.167ZM98.2683 164.33C98.2683 135.692 73.519 131.7 66.6148 131.146C53.5592 154.543 46.1005 181.46 46.1005 210.121C46.1005 242.059 55.3693 271.824 71.3182 296.974C98.2511 292.962 98.2683 264.167 98.2683 264.167V164.33Z" stroke="#4F4F4F" stroke-opacity="0.5" stroke-width="4.88372"/>
<mask id="mask0_81_519" style="mask-type:alpha" maskUnits="userSpaceOnUse" x="-2" y="0" width="423" height="420">
<path d="M-1.88696 419.801H420.466V0.198242H-1.88696" fill="white"/>
</mask>
<g mask="url(#mask0_81_519)">
<path fill-rule="evenodd" clip-rule="evenodd" d="M17.8402 225.458L20.8714 225.098L21.4977 230.333L35.941 228.629L36.3749 232.266L21.9316 233.973L22.5551 239.209L19.5239 239.566L17.8402 225.458Z" fill="#4F4F4F" fill-opacity="0.5"/>
<path fill-rule="evenodd" clip-rule="evenodd" d="M20.3857 207.897L20.5983 216.918L24.3248 216.832L24.1294 208.569L27.1807 208.5L27.3761 216.76L31.907 216.655L31.6858 207.188L34.8262 207.113L35.1336 220.157L17.5413 220.563L17.2454 207.968L20.3857 207.897Z" fill="#4F4F4F" fill-opacity="0.5"/>
<path fill-rule="evenodd" clip-rule="evenodd" d="M17.4064 201.603L17.6937 198.041L24.9312 198.615L18.231 191.29L18.6074 186.587L25.2501 194.321L36.1796 187.607L35.8061 192.288L27.7124 197.063L29.3674 198.967L35.2343 199.43L34.9499 202.993L17.4064 201.603Z" fill="#4F4F4F" fill-opacity="0.5"/>
<path fill-rule="evenodd" clip-rule="evenodd" d="M19.3747 181.395L20.0844 177.646L33.3353 173.191L21.3543 170.944L21.9864 167.61L39.2799 170.852L38.6018 174.429L25.1038 179.013L37.3003 181.3L36.6682 184.637L19.3747 181.395Z" fill="#4F4F4F" fill-opacity="0.5"/>
<path fill-rule="evenodd" clip-rule="evenodd" d="M42.7706 153.131C43.6872 154.792 43.7791 156.816 43.0436 159.204C42.3081 161.591 41.0927 163.218 39.3976 164.082C37.2743 165.286 34.7057 165.429 31.6889 164.508C28.6146 163.57 26.5661 162.02 25.5461 159.859C24.6267 158.197 24.5376 156.173 25.2732 153.786C26.0087 151.398 27.224 149.771 28.9192 148.908C30.9792 147.693 33.545 147.552 36.6221 148.49C39.6389 149.411 41.6846 150.958 42.7706 153.131ZM39.5211 154.535C38.7511 153.414 37.4266 152.568 35.5447 151.993C33.6714 151.424 32.0969 151.387 30.8241 151.881C29.5513 152.379 28.7066 153.314 28.2814 154.689C27.859 156.067 28.0314 157.32 28.7956 158.452C29.5628 159.581 30.8873 160.433 32.7692 161.008C34.6483 161.58 36.2256 161.614 37.4984 161.102C38.7684 160.596 39.6188 159.653 40.0412 158.278C40.4664 156.902 40.2911 155.653 39.5211 154.535Z" fill="#4F4F4F" fill-opacity="0.5"/>
<path fill-rule="evenodd" clip-rule="evenodd" d="M30.3095 140.759L31.7461 137.385L45.0545 142.992L48.4534 135.015L51.3467 136.233L46.5141 147.587L30.3095 140.759Z" fill="#4F4F4F" fill-opacity="0.5"/>
<path fill-rule="evenodd" clip-rule="evenodd" d="M57.981 120.464C58.5384 122.274 58.2137 124.275 57.0012 126.462C55.7916 128.65 54.2689 129.996 52.4329 130.497C50.1086 131.246 47.5629 130.863 44.8018 129.35C41.9833 127.806 40.2967 125.873 39.7394 123.549C39.182 121.736 39.5095 119.737 40.7191 117.55C41.9287 115.36 43.4515 114.016 45.2874 113.513C47.5514 112.741 50.0942 113.13 52.9127 114.671C55.6767 116.183 57.3661 118.113 57.981 120.464ZM54.5131 121.176C53.9873 119.923 52.8639 118.825 51.14 117.882C49.4219 116.941 47.8905 116.586 46.543 116.812C45.1955 117.041 44.1755 117.785 43.4773 119.045C42.7792 120.306 42.693 121.567 43.2101 122.831C43.7302 124.095 44.8507 125.196 46.5746 126.139C48.2985 127.083 49.8356 127.437 51.186 127.197C52.5335 126.957 53.5563 126.205 54.2545 124.944C54.9527 123.683 55.0389 122.428 54.5131 121.176Z" fill="#4F4F4F" fill-opacity="0.5"/>
<path fill-rule="evenodd" clip-rule="evenodd" d="M59.7942 99.0508C58.6507 98.5847 57.5732 98.6505 56.559 99.2538C55.9959 99.5912 55.5017 100.06 55.0736 100.658C54.2605 101.807 54.022 103.054 54.3668 104.403C54.7087 105.753 55.7517 107.04 57.4957 108.269C59.2483 109.507 60.7768 109.982 62.0726 109.696C63.3713 109.413 64.3826 108.761 65.1066 107.743C65.8163 106.745 66.1122 105.724 65.9916 104.684C65.8738 103.64 65.3997 102.719 64.5751 101.916L62.2105 105.241L59.8287 103.563L64.0579 97.6212L71.7493 103.042L70.3501 105.009L68.359 104.02C68.6291 105.072 68.7412 105.927 68.6923 106.579C68.6148 107.709 68.1694 108.849 67.3534 109.996C66.0059 111.889 64.2476 112.975 62.0726 113.258C59.8574 113.587 57.6048 112.944 55.3121 111.328C52.9963 109.696 51.5885 107.752 51.0943 105.498C50.6001 103.242 51.0943 101.072 52.5826 98.9822C53.8698 97.1723 55.3667 96.0429 57.0733 95.5911C58.7771 95.1422 60.3746 95.3252 61.8686 96.1344L59.7942 99.0508Z" fill="#4F4F4F" fill-opacity="0.5"/>
<path fill-rule="evenodd" clip-rule="evenodd" d="M72.482 93.787C73.1572 94.2302 73.749 94.4618 74.2633 94.4761C75.1999 94.5047 76.1481 93.9757 77.1134 92.892C77.6881 92.243 78.0875 91.6512 78.3029 91.1222C78.7138 90.1129 78.55 89.2837 77.8088 88.6318C77.375 88.2515 76.8721 88.1457 76.3004 88.3144C75.7344 88.4888 74.9988 88.9091 74.0938 89.5724L72.5394 90.6962C71.0137 91.8027 69.83 92.4603 68.9968 92.6719C67.5918 93.0379 66.2472 92.6548 64.9572 91.5225C63.782 90.4875 63.1873 89.1979 63.1758 87.651C63.1643 86.1042 63.8998 84.4973 65.3824 82.8275C66.6207 81.4322 68.0458 80.5658 69.6548 80.2285C71.2637 79.8911 72.7922 80.3114 74.2346 81.4951L71.8843 84.137C71.0511 83.4909 70.1777 83.345 69.2669 83.7025C68.6606 83.9426 68.0717 84.3829 67.4999 85.0263C66.8649 85.7468 66.5 86.4416 66.4052 87.1193C66.3104 87.7997 66.5201 88.363 67.0287 88.8119C67.4999 89.2236 68.0372 89.3237 68.6434 89.1035C69.037 88.9692 69.7295 88.5517 70.7207 87.8541L73.2893 86.047C74.4127 85.255 75.3982 84.7833 76.2429 84.6288C77.553 84.3944 78.7943 84.789 79.9637 85.8183C81.1646 86.8734 81.7507 88.2115 81.7277 89.8298C81.7019 91.451 80.9434 93.098 79.4493 94.7792C77.9237 96.4976 76.332 97.504 74.6742 97.7985C73.0192 98.093 71.5051 97.6384 70.1346 96.4318L72.482 93.787Z" fill="#4F4F4F" fill-opacity="0.5"/>
<path fill-rule="evenodd" clip-rule="evenodd" d="M85.9598 67.4191L79.3113 73.5551L81.8425 76.2742L87.9337 70.6558L90.008 72.8831L83.9198 78.5016L86.9999 81.8098L93.9816 75.3736L96.1164 77.6667L86.5028 86.5332L74.5419 73.6923L83.825 65.126L85.9598 67.4191Z" fill="#4F4F4F" fill-opacity="0.5"/>
<path fill-rule="evenodd" clip-rule="evenodd" d="M88.7324 61.0228L91.6027 58.8754L95.9641 64.654L97.0472 54.8067L100.837 51.9761L99.409 62.0492L111.7 65.7576L107.928 68.5769L98.9722 65.7005L98.6361 68.1937L102.17 72.88L99.2969 75.0245L88.7324 61.0228Z" fill="#4F4F4F" fill-opacity="0.5"/>
<path fill-rule="evenodd" clip-rule="evenodd" d="M116.18 42.5809L117.763 45.1772L113.229 47.9106L120.768 60.2912L117.619 62.1897L110.083 49.8091L105.552 52.5397L103.969 49.9435L116.18 42.5809Z" fill="#4F4F4F" fill-opacity="0.5"/>
<path fill-rule="evenodd" clip-rule="evenodd" d="M131.448 54.5041L128.175 56.1767L120.136 40.5967L123.412 38.9269L131.448 54.5041Z" fill="#4F4F4F" fill-opacity="0.5"/>
<path fill-rule="evenodd" clip-rule="evenodd" d="M147.371 45.743C146.669 47.5042 145.161 48.8653 142.845 49.8231C140.527 50.7838 138.492 50.8896 136.743 50.1404C134.459 49.2827 132.709 47.4042 131.496 44.5077C130.261 41.5513 130.155 38.9923 131.177 36.8307C131.879 35.0693 133.387 33.7084 135.703 32.7477C138.021 31.7898 140.053 31.684 141.802 32.4303C144.058 33.2366 145.802 35.1151 147.037 38.0716C148.25 40.968 148.359 43.5241 147.371 45.743ZM144.213 44.1475C144.586 42.8437 144.397 41.2853 143.641 39.4784C142.888 37.677 141.914 36.4475 140.719 35.7899C139.521 35.1323 138.257 35.078 136.921 35.6326C135.585 36.1845 134.726 37.1166 134.341 38.4261C133.956 39.7328 134.14 41.294 134.895 43.101C135.651 44.9081 136.631 46.1375 137.837 46.7866C139.041 47.4385 140.311 47.4871 141.647 46.9324C142.983 46.3777 143.837 45.4513 144.213 44.1475Z" fill="#4F4F4F" fill-opacity="0.5"/>
<path fill-rule="evenodd" clip-rule="evenodd" d="M149.069 28.2246L152.746 27.1524L162.745 36.8824L159.323 25.2367L162.595 24.2845L167.537 41.0912L164.029 42.1149L153.798 32.2218L157.283 44.0791L154.01 45.0312L149.069 28.2246Z" fill="#4F4F4F" fill-opacity="0.5"/>
<path fill-rule="evenodd" clip-rule="evenodd" d="M181.926 23.6268L173.01 25.268L173.686 28.9135L181.854 27.4124L182.408 30.4004L174.24 31.9015L175.062 36.339L184.423 34.6177L184.991 37.6942L172.102 40.0618L168.907 22.8405L181.357 20.5531L181.926 23.6268Z" fill="#4F4F4F" fill-opacity="0.5"/>
<path fill-rule="evenodd" clip-rule="evenodd" d="M187.597 19.7096L191.418 19.4037L199.228 30.9493L198.248 18.8547L201.65 18.5831L203.06 36.0388L199.417 36.3304L191.416 24.5818L192.413 36.8937L189.011 37.1653L187.597 19.7096Z" fill="#4F4F4F" fill-opacity="0.5"/>
<path fill-rule="evenodd" clip-rule="evenodd" d="M219.334 36.2791L215.656 36.1218L216.409 18.6261L220.087 18.7833L219.334 36.2791Z" fill="#4F4F4F" fill-opacity="0.5"/>
<path fill-rule="evenodd" clip-rule="evenodd" d="M225.983 19.0635L229.789 19.518L235.142 32.3789L236.593 20.3301L239.981 20.7333L237.886 38.1232L234.257 37.6886L228.752 24.5932L227.278 36.8565L223.891 36.4534L225.983 19.0635Z" fill="#4F4F4F" fill-opacity="0.5"/>
<path fill-rule="evenodd" clip-rule="evenodd" d="M246.172 21.9058L258.354 24.5991L257.693 27.5642L249.103 25.6657L248.218 29.6343L255.754 31.3013L255.09 34.2663L247.554 32.5994L245.957 39.7532L242.362 38.9554L246.172 21.9058Z" fill="#4F4F4F" fill-opacity="0.5"/>
<path fill-rule="evenodd" clip-rule="evenodd" d="M271.235 45.2912C269.542 46.1604 267.508 46.2004 265.126 45.4113C262.747 44.6193 261.141 43.3698 260.32 41.6628C259.159 39.5213 259.081 36.9593 260.081 33.9857C261.098 30.9464 262.707 28.9478 264.902 27.987C266.595 27.1149 268.629 27.0778 271.011 27.867C273.39 28.6561 274.996 29.9056 275.82 31.6126C276.993 33.6941 277.067 36.2531 276.047 39.2896C275.05 42.2661 273.444 44.2647 271.235 45.2912ZM269.907 42.0231C271.048 41.2854 271.933 39.9873 272.556 38.1288C273.174 36.2789 273.255 34.7148 272.786 33.4367C272.318 32.1586 271.399 31.2923 270.028 30.8348C268.655 30.3802 267.393 30.5203 266.235 31.2551C265.083 31.9899 264.193 33.2881 263.572 35.1438C262.949 37.0022 262.877 38.5691 263.354 39.8472C263.833 41.1253 264.762 41.9916 266.132 42.4463C267.505 42.9037 268.761 42.7607 269.907 42.0231Z" fill="#4F4F4F" fill-opacity="0.5"/>
<path fill-rule="evenodd" clip-rule="evenodd" d="M294.134 38.3148C294.605 38.8351 294.932 39.4355 295.113 40.1132C295.266 40.6679 295.326 41.2369 295.297 41.8173C295.268 42.3949 295.108 42.9953 294.82 43.6215C294.47 44.3763 293.932 45.0283 293.214 45.5801C292.493 46.1319 291.622 46.3578 290.602 46.2549C291.2 46.8896 291.525 47.5472 291.579 48.2306C291.631 48.9168 291.398 49.8175 290.881 50.9326L290.384 52.0019C290.045 52.7311 289.847 53.2372 289.784 53.5231C289.677 53.9749 289.741 54.3695 289.967 54.7097L289.784 55.11L286.12 53.4258C286.186 53.0284 286.247 52.711 286.304 52.4737C286.428 51.9877 286.592 51.5101 286.804 51.0384L287.468 49.5487C287.925 48.5251 288.065 47.7674 287.882 47.2728C287.701 46.7781 287.143 46.3178 286.209 45.8889L282.943 44.3849L280.044 50.6324L276.783 49.1313L284.164 33.2339L291.803 36.7479C292.887 37.2711 293.662 37.7943 294.134 38.3148ZM286.143 37.4913L284.164 41.7487L287.764 43.4014C288.479 43.733 289.054 43.8931 289.49 43.8845C290.263 43.876 290.855 43.4242 291.266 42.535C291.714 41.5743 291.706 40.788 291.249 40.1761C290.99 39.833 290.519 39.5042 289.832 39.1868L286.143 37.4913Z" fill="#4F4F4F" fill-opacity="0.5"/>
<path fill-rule="evenodd" clip-rule="evenodd" d="M312.634 48.0991L317.136 50.824L308.002 65.7921L305.089 64.028L311.266 53.9034C311.444 53.6146 311.697 53.2086 312.022 52.6882C312.349 52.1649 312.599 51.7647 312.775 51.4787L302.265 62.3238L299.219 60.4825L304.06 46.2148C303.888 46.4979 303.644 46.9039 303.328 47.4358C303.017 47.9647 302.77 48.3736 302.595 48.6653L296.415 58.787L293.502 57.0257L302.632 42.0575L307.189 44.811L302.739 58.2294L312.634 48.0991Z" fill="#4F4F4F" fill-opacity="0.5"/>
<path fill-rule="evenodd" clip-rule="evenodd" d="M326.27 57.5176L329.583 60.068L323.719 77.6953L320.573 75.2735L321.865 71.7509L316.74 67.8051L313.611 69.9124L310.545 67.5535L326.27 57.5176ZM319.403 66.0153L322.96 68.7516L325.448 61.9494L319.403 66.0153Z" fill="#4F4F4F" fill-opacity="0.5"/>
<path fill-rule="evenodd" clip-rule="evenodd" d="M346.365 74.7931L344.285 77.0204L340.406 73.432L330.508 84.0342L327.807 81.5409L337.708 70.9388L333.829 67.3476L335.907 65.123L346.365 74.7931Z" fill="#4F4F4F" fill-opacity="0.5"/>
<path fill-rule="evenodd" clip-rule="evenodd" d="M339.004 92.6491L336.49 89.9728L349.344 78.0126L351.858 80.6888L339.004 92.6491Z" fill="#4F4F4F" fill-opacity="0.5"/>
<path fill-rule="evenodd" clip-rule="evenodd" d="M351.979 105.704C350.083 105.513 348.356 104.438 346.799 102.479C345.242 100.521 344.589 98.6021 344.836 96.7236C345.046 94.299 346.388 92.1145 348.862 90.1673C351.384 88.1802 353.829 87.3853 356.197 87.777C358.09 87.9686 359.82 89.0437 361.377 91.0022C362.934 92.9609 363.587 94.8794 363.34 96.7579C363.176 99.1368 361.831 101.318 359.309 103.306C356.835 105.253 354.393 106.053 351.979 105.704ZM352.663 102.248C354.028 102.253 355.482 101.647 357.024 100.432C358.559 99.2226 359.484 97.956 359.797 96.6321C360.107 95.3054 359.817 94.0816 358.918 92.9522C358.021 91.8229 356.886 91.251 355.516 91.2368C354.145 91.2253 352.689 91.8258 351.146 93.0409C349.603 94.2561 348.681 95.5284 348.379 96.858C348.077 98.1904 348.373 99.4198 349.273 100.546C350.169 101.676 351.301 102.242 352.663 102.248Z" fill="#4F4F4F" fill-opacity="0.5"/>
<path fill-rule="evenodd" clip-rule="evenodd" d="M369.39 102.591L371.419 105.825L364.713 118.036L375.05 111.606L376.858 114.488L361.935 123.766L359.998 120.681L366.799 108.206L356.272 114.751L354.464 111.872L369.39 102.591Z" fill="#4F4F4F" fill-opacity="0.5"/>
<path fill-rule="evenodd" clip-rule="evenodd" d="M370.169 127.772C369.5 128.221 369.057 128.681 368.847 129.147C368.465 129.996 368.592 131.072 369.235 132.372C369.617 133.15 370.014 133.742 370.425 134.142C371.201 134.903 372.039 135.069 372.924 134.637C373.444 134.383 373.732 133.962 373.795 133.37C373.847 132.781 373.74 131.947 373.47 130.86L373.016 129.001C372.574 127.177 372.413 125.839 372.534 124.99C372.729 123.56 373.6 122.468 375.145 121.713C376.553 121.027 377.978 120.973 379.418 121.55C380.86 122.128 382.073 123.417 383.058 125.422C383.883 127.091 384.141 128.733 383.842 130.342C383.541 131.952 382.57 133.196 380.918 134.071L379.357 130.9C380.28 130.382 380.748 129.633 380.765 128.658C380.771 128.012 380.584 127.3 380.205 126.528C379.783 125.67 379.274 125.067 378.679 124.724C378.085 124.378 377.481 124.352 376.869 124.653C376.309 124.927 376.01 125.385 375.984 126.025C375.958 126.44 376.082 127.237 376.355 128.412L377.053 131.463C377.358 132.801 377.424 133.888 377.24 134.723C376.958 136.018 376.119 137.01 374.717 137.694C373.278 138.394 371.81 138.426 370.318 137.785C368.822 137.145 367.58 135.815 366.589 133.802C365.578 131.743 365.247 129.896 365.607 128.261C365.963 126.623 366.966 125.405 368.606 124.601L370.169 127.772Z" fill="#4F4F4F" fill-opacity="0.5"/>
<path fill-rule="evenodd" clip-rule="evenodd" d="M392.493 149.108L389.637 150.18L387.764 145.248L374.157 150.358L372.858 146.929L386.466 141.82L384.598 136.888L387.454 135.815L392.493 149.108Z" fill="#4F4F4F" fill-opacity="0.5"/>
<path fill-rule="evenodd" clip-rule="evenodd" d="M394.263 166.761L391.879 158.057L388.284 159.029L390.468 167.004L387.52 167.804L385.336 159.83L380.963 161.016L383.466 170.155L380.432 170.978L376.987 158.392L393.964 153.785L397.294 165.94L394.263 166.761Z" fill="#4F4F4F" fill-opacity="0.5"/>
<path fill-rule="evenodd" clip-rule="evenodd" d="M398.676 172.148L399.262 175.676L392.1 176.854L400.377 182.361L401.15 187.013L392.83 181.1L383.848 190.235L383.078 185.606L389.775 179.03L387.71 177.578L381.903 178.535L381.317 175.01L398.676 172.148Z" fill="#4F4F4F" fill-opacity="0.5"/>
<path fill-rule="evenodd" clip-rule="evenodd" d="M401.665 192.225L401.886 196.031L390.112 203.542L402.285 202.839L402.484 206.227L384.917 207.245L384.704 203.614L396.688 195.914L384.294 196.632L384.098 193.241L401.665 192.225Z" fill="#4F4F4F" fill-opacity="0.5"/>
<path fill-rule="evenodd" clip-rule="evenodd" d="M384.733 215.225L384.799 211.562L402.394 211.877L402.325 215.543L384.733 215.225Z" fill="#4F4F4F" fill-opacity="0.5"/>
<path fill-rule="evenodd" clip-rule="evenodd" d="M402.185 221.504L401.846 225.064L394.617 224.38L401.205 231.809L400.757 236.506L394.232 228.672L383.202 235.22L383.647 230.548L391.81 225.896L390.186 223.966L384.325 223.414L384.664 219.854L402.185 221.504Z" fill="#4F4F4F" fill-opacity="0.5"/>
<path fill-rule="evenodd" clip-rule="evenodd" d="M34.2461 257.699C33.8955 258.3 33.3554 258.694 32.617 258.889C31.8815 259.077 31.212 259 30.6029 258.648C29.9938 258.3 29.5944 257.756 29.4019 257.024C29.2065 256.295 29.2899 255.626 29.6461 255.023C30.0053 254.42 30.5512 254.025 31.2867 253.831C32.0222 253.639 32.6888 253.719 33.2893 254.071C33.8898 254.425 34.2892 254.969 34.4817 255.698C34.6742 256.43 34.5937 257.099 34.2461 257.699Z" fill="#4F4F4F" fill-opacity="0.5"/>
<path fill-rule="evenodd" clip-rule="evenodd" d="M43.7298 270.74C45.5945 271.512 46.9334 272.907 47.7465 274.923C48.8297 277.619 48.7234 279.955 47.4247 281.92C46.6863 283.012 45.8186 283.79 44.8216 284.244L43.454 280.842C44.1493 280.318 44.6291 279.807 44.8935 279.312C45.3589 278.428 45.356 277.396 44.882 276.215C44.3964 275.015 43.5172 274.265 42.2387 273.968C40.9601 273.674 39.4086 273.891 37.5813 274.62C35.754 275.346 34.53 276.255 33.9123 277.348C33.2974 278.44 33.2141 279.546 33.6652 280.67C34.1306 281.822 34.8748 282.543 35.9063 282.837C36.4636 283 37.2078 283.026 38.1444 282.909L39.5121 286.309C37.6186 286.729 35.8775 286.56 34.2858 285.814C32.6941 285.062 31.5218 283.755 30.7719 281.894C29.8439 279.586 29.8669 277.476 30.838 275.558C31.8178 273.636 33.6221 272.152 36.251 271.103C39.0954 269.974 41.5865 269.851 43.7298 270.74Z" fill="#4F4F4F" fill-opacity="0.5"/>
<path fill-rule="evenodd" clip-rule="evenodd" d="M36.3232 293.614L51.89 285.445L53.6081 288.688L47.6894 291.793L50.8298 297.72L56.7485 294.615L58.4638 297.855L42.897 306.021L41.1817 302.781L48.1319 299.136L44.9887 293.208L38.0414 296.854L36.3232 293.614Z" fill="#4F4F4F" fill-opacity="0.5"/>
<path fill-rule="evenodd" clip-rule="evenodd" d="M63.483 305.697L65.8131 309.16L54.6423 324.031L52.4271 320.743L54.7745 317.803L51.1687 312.451L47.5284 313.463L45.3735 310.261L63.483 305.697ZM54.2659 311.59L56.7684 315.307L61.2937 309.64L54.2659 311.59Z" fill="#4F4F4F" fill-opacity="0.5"/>
<path fill-rule="evenodd" clip-rule="evenodd" d="M71.2062 316.663L73.5421 319.49L62.377 328.626L67.9107 335.322L65.4829 337.306L57.6133 327.782L71.2062 316.663Z" fill="#4F4F4F" fill-opacity="0.5"/>
<path fill-rule="evenodd" clip-rule="evenodd" d="M89.6031 336.846L93.3612 340.526L81.021 353.012L78.5875 350.631L86.9368 342.187C87.1753 341.944 87.5143 341.604 87.9539 341.175C88.3906 340.743 88.7268 340.406 88.9624 340.169L76.2344 348.326L73.6916 345.838L81.6962 333.055C81.4606 333.292 81.1302 333.632 80.7021 334.078C80.2769 334.522 79.9436 334.862 79.7022 335.105L71.3557 343.548L68.925 341.169L81.2624 328.686L85.0635 332.406L77.6393 344.452L89.6031 336.846Z" fill="#4F4F4F" fill-opacity="0.5"/>
<path fill-rule="evenodd" clip-rule="evenodd" d="M104.647 353.507L97.5327 347.911L95.2197 350.822L101.739 355.946L99.8455 358.33L93.3292 353.207L90.5192 356.746L97.9866 362.616L96.0386 365.07L85.7527 356.984L96.662 343.245L106.595 351.054L104.647 353.507Z" fill="#4F4F4F" fill-opacity="0.5"/>
<path fill-rule="evenodd" clip-rule="evenodd" d="M119.375 359.998C119.768 360.578 120.012 361.216 120.099 361.911C120.173 362.482 120.159 363.054 120.05 363.623C119.941 364.192 119.702 364.767 119.329 365.347C118.88 366.048 118.26 366.62 117.473 367.074C116.682 367.523 115.789 367.629 114.792 367.389C115.298 368.095 115.53 368.793 115.49 369.476C115.45 370.162 115.097 371.023 114.43 372.061L113.795 373.053C113.358 373.728 113.094 374.205 112.99 374.477C112.827 374.912 112.832 375.312 113.013 375.678L112.775 376.049L109.376 373.888C109.494 373.502 109.597 373.196 109.689 372.97C109.873 372.504 110.103 372.052 110.376 371.612L111.241 370.228C111.833 369.276 112.071 368.544 111.959 368.032C111.844 367.515 111.359 366.98 110.491 366.431L107.46 364.501L103.733 370.297L100.708 368.375L110.186 353.619L117.277 358.131C118.28 358.794 118.975 359.417 119.375 359.998ZM111.568 358.102L109.028 362.056L112.37 364.181C113.031 364.601 113.579 364.838 114.013 364.89C114.78 364.981 115.43 364.618 115.958 363.792C116.53 362.903 116.631 362.122 116.263 361.456C116.053 361.079 115.631 360.687 114.993 360.284L111.568 358.102Z" fill="#4F4F4F" fill-opacity="0.5"/>
<path fill-rule="evenodd" clip-rule="evenodd" d="M122.693 375.252C122.431 376.012 122.357 376.638 122.469 377.139C122.678 378.051 123.431 378.829 124.727 379.483C125.506 379.875 126.178 380.11 126.75 380.187C127.833 380.327 128.597 379.958 129.045 379.083C129.307 378.568 129.284 378.06 128.974 377.551C128.66 377.047 128.069 376.447 127.198 375.741L125.713 374.528C124.253 373.336 123.316 372.364 122.9 371.612C122.19 370.354 122.225 368.961 123 367.435C123.71 366.039 124.816 365.144 126.319 364.741C127.819 364.344 129.565 364.644 131.565 365.656C133.232 366.494 134.433 367.649 135.168 369.116C135.901 370.58 135.875 372.158 135.088 373.842L131.924 372.247C132.344 371.28 132.266 370.402 131.692 369.613C131.304 369.093 130.726 368.638 129.956 368.249C129.1 367.815 128.33 367.64 127.646 367.718C126.962 367.801 126.465 368.144 126.158 368.747C125.873 369.304 125.914 369.845 126.279 370.374C126.511 370.72 127.092 371.28 128.02 372.061L130.422 374.079C131.476 374.96 132.183 375.792 132.545 376.567C133.105 377.771 133.03 379.063 132.324 380.45C131.6 381.871 130.448 382.774 128.867 383.16C127.287 383.541 125.491 383.226 123.48 382.208C121.426 381.173 120.047 379.895 119.343 378.374C118.642 376.853 118.702 375.28 119.53 373.653L122.693 375.252Z" fill="#4F4F4F" fill-opacity="0.5"/>
<path fill-rule="evenodd" clip-rule="evenodd" d="M160.711 377.862L159.722 380.736L154.711 379.026L149.994 392.716L146.511 391.529L151.229 377.836L146.218 376.129L147.21 373.256L160.711 377.862Z" fill="#4F4F4F" fill-opacity="0.5"/>
<path fill-rule="evenodd" clip-rule="evenodd" d="M175.249 384.656L166.431 382.545L165.56 386.151L173.637 388.081L172.921 391.037L164.848 389.105L163.788 393.491L173.039 395.704L172.304 398.746L159.558 395.692L163.676 378.668L175.984 381.616L175.249 384.656Z" fill="#4F4F4F" fill-opacity="0.5"/>
<path fill-rule="evenodd" clip-rule="evenodd" d="M180.303 382.44L183.86 382.92L182.886 390.08L190.609 383.827L195.303 384.461L187.178 390.634L193.312 401.863L188.638 401.234L184.291 392.93L182.291 394.469L181.501 400.273L177.941 399.793L180.303 382.44Z" fill="#4F4F4F" fill-opacity="0.5"/>
<path fill-rule="evenodd" clip-rule="evenodd" d="M198.492 384.65L202.322 384.761L208.813 397.09L209.172 384.961L212.585 385.064L212.065 402.569L208.408 402.463L201.751 389.908L201.383 402.254L197.975 402.154L198.492 384.65Z" fill="#4F4F4F" fill-opacity="0.5"/>
<path fill-rule="evenodd" clip-rule="evenodd" d="M221.257 402.163L217.579 402.328L216.78 384.836L220.458 384.667L221.257 402.163Z" fill="#4F4F4F" fill-opacity="0.5"/>
<path fill-rule="evenodd" clip-rule="evenodd" d="M228.98 396.181C229.184 396.962 229.471 397.525 229.842 397.877C230.523 398.523 231.583 398.76 233.028 398.589C233.896 398.489 234.585 398.314 235.102 398.065C236.082 397.588 236.519 396.859 236.401 395.881C236.335 395.309 236.033 394.897 235.493 394.643C234.953 394.394 234.126 394.22 233.008 394.114L231.094 393.92C229.215 393.728 227.897 393.431 227.132 393.036C225.842 392.375 225.095 391.197 224.897 389.496C224.713 387.944 225.138 386.591 226.164 385.433C227.193 384.269 228.819 383.56 231.043 383.303C232.902 383.086 234.542 383.389 235.967 384.207C237.392 385.024 238.246 386.354 238.527 388.19L235.005 388.601C234.818 387.563 234.266 386.874 233.35 386.534C232.738 386.311 232.002 386.251 231.143 386.351C230.189 386.463 229.451 386.74 228.925 387.18C228.399 387.623 228.175 388.181 228.256 388.856C228.328 389.476 228.664 389.905 229.261 390.145C229.646 390.308 230.439 390.454 231.646 390.591L234.769 390.952C236.14 391.109 237.191 391.412 237.921 391.858C239.056 392.556 239.714 393.671 239.895 395.215C240.082 396.799 239.622 398.185 238.519 399.375C237.412 400.562 235.74 401.288 233.502 401.548C231.215 401.814 229.353 401.508 227.922 400.624C226.492 399.744 225.67 398.4 225.457 396.593L228.98 396.181Z" fill="#4F4F4F" fill-opacity="0.5"/>
<path fill-rule="evenodd" clip-rule="evenodd" d="M241.949 382.286L245.457 381.514L247.017 388.573L252.105 380.061L256.737 379.046L251.241 387.624L260.88 396.07L256.274 397.079L249.324 390.769L247.974 392.899L249.238 398.62L245.733 399.387L241.949 382.286Z" fill="#4F4F4F" fill-opacity="0.5"/>
<path fill-rule="evenodd" clip-rule="evenodd" d="M264.566 376.561L268.543 375.249L279.972 389.925L276.197 391.172L273.979 388.141L267.83 390.171L267.841 393.934L264.164 395.149L264.566 376.561ZM267.821 386.975L272.085 385.562L267.801 379.712L267.821 386.975Z" fill="#4F4F4F" fill-opacity="0.5"/>
<path fill-rule="evenodd" clip-rule="evenodd" d="M291.657 384.993L283.762 369.342L287.052 367.697L290.051 373.648L296.071 370.643L293.071 364.692L296.361 363.048L304.256 378.7L300.963 380.344L297.441 373.356L291.422 376.364L294.947 383.349L291.657 384.993Z" fill="#4F4F4F" fill-opacity="0.5"/>
<path fill-rule="evenodd" clip-rule="evenodd" d="M300.616 354.714L303.253 353.018L304.79 355.383L302.15 357.081L300.616 354.714ZM320.179 366.991C319.808 368.853 318.564 370.457 316.458 371.815C314.349 373.167 312.37 373.636 310.514 373.21C308.112 372.77 306.052 371.234 304.339 368.598C302.595 365.908 302.029 363.409 302.65 361.101C303.021 359.243 304.262 357.636 306.368 356.281C308.48 354.925 310.459 354.462 312.312 354.885C314.677 355.277 316.734 356.815 318.478 359.503C320.19 362.139 320.756 364.635 320.179 366.991ZM304.65 352.12L307.287 350.422L308.824 352.789L306.187 354.485L304.65 352.12ZM316.786 365.985C316.921 364.632 316.455 363.137 315.387 361.49C314.324 359.855 313.146 358.817 311.85 358.382C310.554 357.945 309.301 358.119 308.086 358.9C306.871 359.683 306.192 360.753 306.046 362.108C305.902 363.466 306.365 364.964 307.431 366.611C308.5 368.255 309.683 369.287 310.988 369.713C312.289 370.139 313.548 369.962 314.763 369.182C315.978 368.401 316.651 367.332 316.786 365.985Z" fill="#4F4F4F" fill-opacity="0.5"/>
<path fill-rule="evenodd" clip-rule="evenodd" d="M329.221 346.845C328.241 346.096 327.184 345.879 326.049 346.19C325.414 346.368 324.811 346.691 324.242 347.154C323.15 348.043 322.59 349.187 322.561 350.579C322.532 351.969 323.196 353.487 324.549 355.131C325.914 356.787 327.258 357.647 328.586 357.713C329.91 357.782 331.06 357.422 332.031 356.627C332.982 355.855 333.536 354.945 333.7 353.91C333.858 352.875 333.651 351.86 333.071 350.871L329.902 353.453L328.051 351.208L333.712 346.591L339.688 353.847L337.812 355.377L336.157 353.896C336.137 354.983 336.016 355.835 335.797 356.452C335.421 357.522 334.691 358.502 333.597 359.394C331.795 360.867 329.807 361.45 327.638 361.147C325.414 360.881 323.411 359.669 321.633 357.507C319.831 355.32 318.992 353.075 319.116 350.771C319.239 348.469 320.297 346.502 322.282 344.881C324.009 343.474 325.753 342.776 327.514 342.794C329.281 342.811 330.772 343.406 331.996 344.581L329.221 346.845Z" fill="#4F4F4F" fill-opacity="0.5"/>
<path fill-rule="evenodd" clip-rule="evenodd" d="M342.201 343.954C342.845 344.434 343.428 344.694 343.937 344.737C344.871 344.817 345.847 344.34 346.87 343.311C347.485 342.693 347.91 342.127 348.157 341.609C348.623 340.626 348.502 339.788 347.801 339.096C347.387 338.693 346.893 338.561 346.31 338.699C345.735 338.842 344.98 339.219 344.037 339.831L342.428 340.872C340.84 341.889 339.624 342.484 338.779 342.65C337.357 342.939 336.036 342.481 334.812 341.28C333.694 340.183 333.171 338.862 333.246 337.318C333.318 335.774 334.139 334.21 335.714 332.623C337.027 331.296 338.498 330.507 340.121 330.261C341.75 330.009 343.25 330.515 344.623 331.773L342.132 334.287C341.337 333.595 340.472 333.4 339.544 333.709C338.926 333.915 338.314 334.324 337.705 334.936C337.033 335.616 336.628 336.294 336.495 336.963C336.366 337.638 336.541 338.213 337.027 338.687C337.475 339.125 338.007 339.253 338.624 339.067C339.024 338.956 339.739 338.576 340.765 337.932L343.431 336.268C344.598 335.539 345.606 335.122 346.457 335.016C347.778 334.85 348.996 335.313 350.108 336.405C351.249 337.526 351.76 338.89 351.648 340.508C351.533 342.121 350.683 343.728 349.1 345.323C347.485 346.956 345.839 347.874 344.167 348.077C342.497 348.28 341.012 347.745 339.71 346.467L342.201 343.954Z" fill="#4F4F4F" fill-opacity="0.5"/>
<path fill-rule="evenodd" clip-rule="evenodd" d="M343.581 325.035L345.833 322.247L351.49 326.776L350.1 316.966L353.071 313.292L354.188 323.405L367.017 323.977L364.06 327.639L354.671 327.05L354.958 329.552L359.547 333.224L357.297 336.006L343.581 325.035Z" fill="#4F4F4F" fill-opacity="0.5"/>
<path fill-rule="evenodd" clip-rule="evenodd" d="M375.691 307.925C376.125 309.772 375.665 311.745 374.312 313.846C372.959 315.951 371.347 317.189 369.482 317.566C367.112 318.158 364.598 317.606 361.943 315.914C359.236 314.187 357.679 312.145 357.286 309.786C356.849 307.942 357.311 305.969 358.665 303.865C360.018 301.763 361.63 300.522 363.494 300.145C365.81 299.527 368.321 300.082 371.028 301.809C373.683 303.502 375.237 305.54 375.691 307.925ZM372.183 308.405C371.746 307.121 370.697 305.952 369.043 304.894C367.39 303.839 365.888 303.381 364.526 303.519C363.167 303.659 362.098 304.331 361.317 305.543C360.538 306.755 360.363 308.008 360.794 309.3C361.228 310.598 362.273 311.773 363.928 312.828C365.583 313.886 367.094 314.338 368.456 314.192C369.821 314.044 370.89 313.36 371.674 312.151C372.453 310.938 372.625 309.689 372.183 308.405Z" fill="#4F4F4F" fill-opacity="0.5"/>
<path fill-rule="evenodd" clip-rule="evenodd" d="M365.411 293.772L367.075 290.503L379.964 297.017L383.906 289.288L386.71 290.704L381.101 301.697L365.411 293.772Z" fill="#4F4F4F" fill-opacity="0.5"/>
<path fill-rule="evenodd" clip-rule="evenodd" d="M374.229 275.081L375.754 271.195L394.401 271.827L392.953 275.513L389.189 275.275L386.833 281.28L389.75 283.676L388.336 287.267L374.229 275.081ZM384.357 279.241L385.991 275.075L378.731 274.618L384.357 279.241Z" fill="#4F4F4F" fill-opacity="0.5"/>
<path fill-rule="evenodd" clip-rule="evenodd" d="M388.646 253.207C389.244 252.853 389.911 252.77 390.649 252.958C391.385 253.147 391.933 253.545 392.292 254.142C392.654 254.743 392.741 255.412 392.548 256.144C392.361 256.878 391.962 257.419 391.356 257.773C390.747 258.128 390.077 258.208 389.339 258.022C388.603 257.833 388.06 257.439 387.71 256.841C387.356 256.241 387.273 255.575 387.463 254.843C387.652 254.111 388.049 253.565 388.646 253.207Z" fill="#4F4F4F" fill-opacity="0.5"/>
<path fill-rule="evenodd" clip-rule="evenodd" d="M414.461 210.121C414.461 322.564 322.86 413.723 209.867 413.723C96.8777 413.723 5.27594 322.564 5.27594 210.121C5.27594 97.6758 96.8777 6.51721 209.867 6.51721C322.86 6.51721 414.461 97.6758 414.461 210.121Z" stroke="#4F4F4F" stroke-opacity="0.5" stroke-width="9.76744"/>
</g>
</g>
<defs>
<clipPath id="clip0_81_519">
<rect width="420" height="420" fill="white"/>
</clipPath>
</defs>
</svg>
